<?xml version="1.0" encoding="UTF-8"?>
<svg id="Layer_1" data-name="Layer 1" xmlns="http://www.w3.org/2000/svg" version="1.1" viewBox="0 0 375 728.2">
  <defs>
    <style>
      .cls-1 {
        fill: #ffb6b6;
      }

      .cls-1, .cls-2, .cls-3, .cls-4, .cls-5 {
        stroke-width: 0px;
      }

      .cls-2 {
        fill: #3f3d56;
      }

      .cls-3 {
        fill: #fdb927;
      }

      .cls-4 {
        fill: #2f2e41;
      }

      .cls-5 {
        fill: #fff;
      }
    </style>
  </defs>
  <path class="cls-2" d="M2.8,484.3c-.6,0-1-.4-1-1V201.5c0-70.9,57.7-128.6,128.6-128.6h217.1c.6,0,1,.4,1,1s-.4,28-1,28l-217.1-27C60.6,74.9,3.8,131.7,3.8,201.5v281.8c0,.6-.4,1-1,1Z"/>
  <path class="cls-2" d="M348.3,0c.6,0,1,.4,1,1v281.8c0,70.9-57.7,128.6-128.6,128.6H3.6c-.6,0-1-.4-1-1s.4-1,1-1h217.1c69.8,0,126.6-56.8,126.6-126.6V1c0-.6.4-1,1-1h0Z"/>
  <path class="cls-1" d="M247.6,267.3c0-4.3,1.7-8.5,5-11.7l45.6-44.4c1.2-4.5,3.5-8.8,6.6-12.2,3.8-4.3,8.4-7.5,13-8.8,4.7-1.4,8.9-.8,11.7,1.7,5.8,5,4.2,16.5-3.7,25.5-3,3.6-6.9,6.4-11.2,8.2l-41.3,42.6,22.8,34.5c4.4,5.1,5.4,12.3,2.5,18.5-2.8,6-8.6,9.8-15.1,9.8-7,0-13.2-4.2-15.8-10.7l-18.7-46.9c-.8-2-1.2-4-1.2-6.1Z"/>
  <circle class="cls-2" cx="285.8" cy="190.9" r="36"/>
  <g>
    <polygon class="cls-1" points="304.5 287.2 277.7 307.7 311.7 331 328.8 294.5 304.5 287.2"/>
    <circle class="cls-1" cx="319.2" cy="276.4" r="28.4"/>
    <path class="cls-4" d="M321.4,308.2s6.4-20.5,2.3-24.3-4,.1-4,.1l5.2-19.7s-2.5-11.5-19-13c0,0,5.9-11.1,14.4-9.3,8.5,1.8,9.1,3.9,12.7,3.2,3.6-.7,11.1,5.9,11.1,5.9,0,0,3.9-3.1,3.4.7-.4,3.9,3.7,10.2,3.7,10.2,0,0,2.3-1.5,1.7,2.6-.6,4.1,2.4,6.2,2.4,6.2,0,0-4,2.6-2.7,4.6,1.3,2,6.4,3.6,4.5,5.7s-.5,6.8-7,11.9-28.6,15.2-28.6,15.2h0Z"/>
  </g>
  <path class="cls-1" d="M338.2,678l-.2-.2-67-69.6c-6.5-6.7-9.6-15.9-8.6-25.2l3.5-32.1,33.9,6.2,1.3,20.3,57,92.4-19.9,8.4Z"/>
  <path class="cls-4" d="M346.3,728.2c-1.1,0-2.1-.3-3.1-.8-2.4-1.3-3.7-4-3.2-6.6l2.3-14.7-12-26,3.2-9.5,18.1-1,6-6,6.8,1.2c4.1.7,7.4,3.2,9.3,6.9,1.8,3.7,1.8,7.9,0,11.5l-21.5,41.7c-.8,1.6-2.2,2.7-3.9,3.2-.6.2-1.2.3-1.9.3Z"/>
  <polygon class="cls-4" points="312.3 483.4 299.3 565.4 236.3 595.4 226.3 515.4 312.3 483.4"/>
  <path class="cls-1" d="M276.2,654l-.2-.2-67-69.6c-6.5-6.7-9.6-15.9-8.6-25.2l3.5-32.1,33.9,6.2,1.3,20.3,57,92.4-19.9,8.4Z"/>
  <path class="cls-4" d="M284.3,704.2c-1.1,0-2.1-.3-3.1-.8-2.4-1.3-3.7-4-3.2-6.6l2.3-14.7-12-26,3.2-9.5,18.1-1,6-6,6.8,1.2c4.1.7,7.4,3.2,9.3,6.9,1.8,3.7,1.8,7.9,0,11.5l-21.5,41.7c-.8,1.6-2.2,2.7-3.9,3.2-.6.2-1.2.3-1.9.3Z"/>
  <path class="cls-4" d="M240.6,455.9l-7,19.1-31.6,51.6c-.9,1.5-1.1,3.3-.4,5,.7,1.6,2,2.8,3.8,3.3l69.7,17.9,32.3-45.3c9.2-12.9,14-28.8,13.4-44.6l-80.2-6.9h0Z"/>
  <path class="cls-3" d="M312.6,475.4h-80v-.5s10.1-122.5,10.1-122.5c1.3-16.1,9.6-30.6,22.8-39.9h.1c0,0,54.7,1.9,54.7,1.9l-11.9,110.4,15.8,31.8c2,4.1,1.8,8.8-.6,12.6-2.4,3.9-6.5,6.2-11.1,6.2Z"/>
  <path class="cls-1" d="M290.7,337c-4.6,0-9-1.9-12.3-5.3l-34.7-36.7c-4.6-4.8-5.8-11.9-3.1-17.9l25.9-58.1c-.6-4.6,0-9.4,1.6-13.8,1.9-5.4,5-10,8.8-13,3.9-3,7.9-4,11.5-2.8,7.3,2.5,10,13.8,6,25-1.5,4.4-4,8.5-7.4,11.8l-22.7,54.9,33.9,23.6c6,3.1,9.5,9.4,9.2,16.3-.3,6.6-4.3,12.3-10.4,14.7-2.1.8-4.2,1.2-6.4,1.2Z"/>
  <path class="cls-5" d="M40.1,228.7c8.8,10.5,12.2,24.4,14.5,37.8.9,4.9,1.6,9.9,2.2,14.8,2.4,18.5,3.2,37.8-3.3,55.3-1.6,4.4-3.3,10.4.6,13.1,3.1,2.1,7.6,0,9.3-3.4s1.4-7.3,1-11.1c-4.1,4.4-2.8,12.6,2.4,15.5s12.9-.2,14.5-6.1c.8,6.2,6.9,11.2,13.2,10.9,6.2-.4,11.7-6,11.9-12.3-3.2,3.4-1.6,9.7,2.4,12.2,4,2.5,9.4,1.8,13.5-.5,4.1-2.3,7.3-6,10.4-9.6-4,2.5-5,8.8-1.9,12.4s9.5,3.5,12.5-.2c2.5-3,2.5-7.5,1.3-11.2-1.2-3.7-3.4-7-5.1-10.6-7.7-16.2-3.2-35.5,3.2-52.2s14.5-33.7,13.8-51.6"/>
  <path class="cls-2" d="M39.5,229.2c6.4,7.8,9.9,17.4,12.2,27.1,2.5,10.5,4,21.3,5.1,32.1,1.1,10.9,1.5,21.9-.2,32.8-.8,5.2-2.1,10.3-3.9,15.3-1.2,3.4-2.7,7.7-1.2,11.3,1.8,4.2,6.9,4.3,10.1,1.7,4.3-3.4,4-9.4,3.5-14.3,0-.6-.8-1.1-1.3-.5-3.4,3.8-3.5,9.7-.6,13.8,3.1,4.3,8.8,5.1,13.4,2.7,2.6-1.3,4.6-3.6,5.4-6.4h-1.4c1,6.6,7.5,12,14.2,11.4,6.6-.6,12-6.4,12.3-13,0-.6-.8-1-1.3-.5-2.2,2.4-2.4,5.9-1.2,8.8,1.3,3.3,4.2,5.4,7.7,6,8.9,1.5,15.6-5.6,20.8-11.7.5-.6-.1-1.7-.9-1.2-3.3,2.2-4.8,6.5-3.8,10.3,1.1,4,5,6.4,9.1,6.1,4.6-.3,7.8-3.7,8.4-8.1.7-5.4-2-10.3-4.5-14.9-11.7-21.9-1.4-46,6.8-67.1,4.9-12.5,9.3-25.5,8.9-39.1,0-1-1.5-1-1.5,0,.8,22.6-11.9,42.3-17.8,63.4-2.8,10-4.4,20.7-2.3,31,1,5.1,1.2,10.5,3.6,15.1,2.3,4.3,6.7,8.7,4.7,13.7-1.9,4.6-8.2,6-11.9,2.8-3.6-3.1-2.8-9.4,1-11.9l-.9-1.2c-4.6,5.3-8.2,4.6-15.9,4.6-3.3,0-8.2,5.4-9.8,2.5-1.4-2.5-1.5-5.8.5-8l-1.3-.5c-.2,5.9-5.2,11.2-11.1,11.5-6,.4-11.6-4.4-12.5-10.3-.1-.8-1.3-.7-1.4,0-1.6,5.4-8.6,8.4-13.5,5.5-4.8-2.8-5.8-10.2-2.2-14.3l-1.3-.5c.5,4.5,1,10.5-3.3,13.4-1.6,1.1-3.8,1.7-5.6.6-1.8-1,.5-3.9.5-5.8,0-4.3-.6-7.5.6-11.5,1.4-4.8,2.3-9.8,2.8-14.8,1.1-10.2.6-20.6-.6-30.7-1.1-10.1-2.6-20.3-4.9-30.2-2.4-10-6-19.9-12.7-27.9-.6-.7-1.7.3-1.1,1.1h0s0,0,0,0Z"/>
  <path class="cls-2" d="M98.3,241.5c-30.5,0-63-5.1-63-14.5s32.5-14.5,63-14.5,63,5.1,63,14.5-32.5,14.5-63,14.5ZM98.3,214.5c-35.9,0-61,6.6-61,12.5s25.1,12.5,61,12.5,61-6.6,61-12.5-25.1-12.5-61-12.5Z"/>
  <path class="cls-2" d="M28.4,255.5c-.3,0-.6,0-.9,0l-19.4-2.2c-4.1-.5-7.3-3.9-7.4-8.1L0,219.3c0-2.4.9-4.7,2.6-6.3,1.7-1.6,4.1-2.4,6.5-2.2l29.1,2.7c3.3.3,6.1,2.5,7.1,5.7l4.7,14c1.1,3.2,0,6.9-2.6,9.1l-13.8,11.3c-1.5,1.2-3.4,1.9-5.3,1.9Z"/>
</svg>